<?xml version="1.0" standalone="no"?>
<!DOCTYPE svg PUBLIC "-//W3C//DTD SVG 1.1//EN" "http://www.w3.org/Graphics/SVG/1.1/DTD/svg11.dtd" >
<svg>
<metadata>
Created by FontForge 20090914 at Thu Mar  1 00:15:50 2012
 By www-data
</metadata>
<defs>
<font id="Liberator" horiz-adv-x="500" >
  <font-face 
    font-family="Liberator"
    font-weight="700"
    font-stretch="normal"
    units-per-em="1000"
    panose-1="0 0 0 0 0 0 0 0 0 0"
    ascent="750"
    descent="-250"
    x-height="695"
    cap-height="696"
    bbox="0 -132 750 702"
    underline-thickness="50"
    underline-position="-50"
    unicode-range="U+0020-U+2044"
  />
<missing-glyph 
 />
    <glyph glyph-name=".notdef" 
 />
    <glyph glyph-name="F" unicode="F" horiz-adv-x="518" 
d="M502 699q5 0 9.5 -4t4.5 -10v-119q0 -9 -8 -12v-2h-237v-129h177q14 0 14 -14v-119q0 -9 -7 -12v-2h-184v-262q0 -14 -14 -14h-119q-14 0 -14 14v671q0 14 14 14h364v0z" />
    <glyph glyph-name="G" unicode="G" horiz-adv-x="568" 
d="M356 256q-6 0 -10 4.5t-4 9.5v119q0 14 14 14h198q6 0 10.5 -4t4.5 -10v-304h-1q-2 -10 -10 -18l-56 -56q-8 -8 -18 -10q-4 -1 -8 -1h-259q-5 0 -9 1q-9 2 -17 10l-56 56q-8 8 -10 17q-1 4 0 9l-1 1v512h1q-1 4 0 8q2 10 10 18l56 56q8 8 17 10q4 1 9 1h259q4 0 8 -1
q10 -2 18 -10l56 -56q8 -8 10 -18q1 -4 1 -8h-1l1 -1v-106q0 -5 -4.5 -9.5t-10.5 -4.5h-118q-6 0 -10 4.5t-4 9.5v26v2q0 1 -1 2t-2 3l-17 17q-2 3 -7 3h-97q-4 0 -7 -3l-16 -17q-4 -4 -4 -5q-1 -1 0 -2v-357q1 -2 1.5 -3.5t2.5 -3.5l13 -14h117l14 14q3 4 3 7v88h-66z" />
    <glyph glyph-name="H" unicode="H" horiz-adv-x="568" 
d="M554 699q14 0 14 -14v-671q0 -14 -14 -14h-119q-5 0 -9.5 4t-4.5 10v262h-150v-262q0 -6 -4.5 -10t-9.5 -4h-119q-14 0 -14 14v671q0 14 14 14h119q5 0 9.5 -4t4.5 -10v-262h150v262q0 6 4.5 10t9.5 4h119v0z" />
    <glyph glyph-name="I" unicode="I" horiz-adv-x="266" 
d="M252 696q14 0 14 -14v-668q0 -14 -14 -14h-119q-14 0 -14 14v668q0 14 14 14h119v0z" />
    <glyph glyph-name="J" unicode="J" horiz-adv-x="612" 
d="M612 93q0 -5 -1 -9q-2 -9 -10 -17l-56 -57q-8 -8 -18 -10q-4 -1 -8 0h-259q-4 -1 -8 0q-9 2 -17 10l-57 57q-5 5 -6.5 9.5t-2.5 8.5h-1v157q0 14 14 14h119q5 0 9.5 -4t4.5 -10v-74q0 -5 3 -7l14 -14h116l14 14q3 3 3 7v517q2 11 14 11h119q12 0 14 -11v-592v0z" />
    <glyph glyph-name="K" unicode="K" horiz-adv-x="526" 
d="M574 14q2 -5 -3.5 -9.5t-11.5 -4.5h-133q-6 0 -11 4.5t-7 9.5l-123 276l-52 -72v-204q0 -14 -14 -14h-119q-14 0 -14 14v671q0 5 4 9.5t10 4.5h119q6 0 10 -4.5t4 -9.5v-219l148 219q4 5 8 9.5t10 4.5h151q5 0 12.5 -4.5t5.5 -9.5l-188 -263l190 -400z" />
    <glyph glyph-name="L" unicode="L" horiz-adv-x="529" 
d="M541 147q6 0 10.5 -4.5t4.5 -9.5v-119q0 -6 -4.5 -10t-10.5 -4h-400q-6 0 -10.5 4t-4.5 10v671h1q2 11 14 11h118q12 0 14 -11v-538h268v0z" />
    <glyph glyph-name="M" unicode="M" horiz-adv-x="594" 
d="M648 14q0 -14 -14 -14h-118q-6 0 -10.5 4t-4.5 10l-4 253l-77 -255q-2 -5 -7 -9.5t-11 -4.5h-80q-6 0 -11 4.5t-8 9.5l-76 255l-5 -253q0 -14 -14 -14h-119q-5 0 -9.5 4t-4.5 10l27 668v3q1 6 6 9q1 0 2 1q2 0 3 1h127q10 0 15 -13l90 -386l11 -84l8 84l105 386
q3 13 15 13h127q1 -1 3 -1q0 -1 1 -1q4 -3 6 -9v-2l1 -1z" />
    <glyph glyph-name="B" unicode="B" horiz-adv-x="550" 
d="M550 407q0 -5 -1 -9q-2 -9 -10 -17l-39 -40l39 -39q5 -5 7 -9.5t3 -8.5h1v-191q0 -5 -1 -9q-2 -9 -10 -17l-56 -56q-8 -8 -18 -10q-4 -1 -8 -1h-318q-14 0 -14 14v671q0 14 14 14h318q4 0 8 -1q10 -2 18 -10l56 -56q8 -8 10 -18q1 -4 1 -8v-199zM272 552v-129h114l14 14
q3 4 3 7v81v2q0 1 -1 2t-2 3l-17 17q-2 3 -6 3h-105zM272 147h114l14 14q3 4 3 7v81v2q0 1 -1 2t-2 3l-17 17q-3 3 -6 3h-105v-129z" />
    <glyph glyph-name="N" unicode="N" horiz-adv-x="585" 
d="M570 700q14 0 14 -14v-671q0 -5 -4 -9.5t-10 -4.5h-158q-6 0 -11 4.5t-7 9.5l-122 334v-334q0 -5 -4.5 -9.5t-9.5 -4.5h-119q-6 0 -10 4.5t-4 9.5v671q0 14 14 14h149q11 0 14 -14h1l132 -386l2 -11v397q0 6 4.5 10t9.5 4h119v0z" />
    <glyph glyph-name="O" unicode="O" horiz-adv-x="568" 
d="M568 93q0 -5 -1 -9t-2.5 -8t-6.5 -9l-57 -56q-8 -8 -17 -10q-4 -1 -8 -1h-259q-5 0 -9 1q-9 2 -17 10l-56 56q-8 8 -10 17q-1 4 -1 9v513q0 4 1 8q2 10 10 18l56 56q8 8 17 10q4 1 9 1h258q4 0 8 -1q10 -2 18 -10l57 -56q5 -5 6.5 -9.5t2.5 -8.5t1 -8v-513zM297 552
q-4 0 -6 -3l-17 -16q-3 -3 -3 -6v-2v-357q0 -3 3 -7l14 -14h116l14 14q3 3 3 7v357v2q0 3 -3 6l-16 16q-3 3 -7 3h-98z" />
    <glyph glyph-name="P" unicode="P" horiz-adv-x="550" 
d="M550 352l-1 -1h1q0 -5 -1 -9q-2 -9 -10 -17l-56 -57q-8 -8 -18 -10q-4 -1 -8 0h-185v-243q0 -5 -4.5 -9.5t-10.5 -4.5h-118q-6 0 -10 4.5t-4 9.5v671q0 14 14 14h318q4 0 8 -1t8.5 -2.5t9.5 -6.5l56 -57q8 -8 10 -18q1 -4 1 -8v-255zM272 405h103h2q3 0 6 3l17 16
q1 2 2 2.5t1 2.5v3v94v2q0 1 -1 2t-2 3l-17 17q-2 1 -3.5 2t-2.5 1h-2h-103v-148z" />
    <glyph glyph-name="Q" unicode="Q" horiz-adv-x="570" 
d="M580 -51q2 -5 -3.5 -9.5t-10.5 -4.5h-134q-6 0 -11 4.5t-7 9.5l-22 51h-173q-5 0 -9 1q-9 2 -17 10l-56 56q-8 8 -10 17q-1 4 -1 9v513q0 4 1 8q2 10 10 18l56 56q8 8 17 10q4 1 9 1h258q4 0 8 -1q10 -2 18 -10l57 -56q5 -5 6.5 -9.5t2.5 -8.5t1 -8v-513q0 -5 -1 -9
t-2.5 -8t-6.5 -9l-21 -21l38 -91zM299 552q-4 0 -6 -3l-17 -16q-3 -3 -3 -6v-2v-356v-3q0 -2 3 -5l14 -14h116l14 14q3 3 3 5v3v356v2q0 3 -3 6l-16 16q-3 3 -7 3h-98z" />
    <glyph glyph-name="R" unicode="R" horiz-adv-x="552" 
d="M550 350q0 -5 -1 -9t-2.5 -8t-6.5 -9l-57 -57l-3 -2l102 -251q2 -5 -3.5 -9.5t-10.5 -4.5h-134q-6 0 -11 4.5t-7 9.5l-98 243h-46v-243q0 -5 -4 -9.5t-10 -4.5h-119q-5 0 -9.5 4.5t-4.5 9.5v671q0 6 4.5 10t9.5 4h318q4 0 8 -1t8.5 -2.5t9.5 -6.5l57 -57q5 -5 6.5 -10
t2.5 -9q1 -5 1 -9v-254zM272 404h105q4 0 7 3l16 16q3 3 3 5v3v94v2q0 3 -3 6l-16 16q-3 3 -6 3h-2h-104v-148z" />
    <glyph glyph-name="S" unicode="S" horiz-adv-x="566" 
d="M565 606l1 -1v-103q0 -6 -4.5 -10t-10.5 -4h-118q-14 0 -14 14v50h-124q-4 0 -7 -3l-16 -16q-4 -4 -4 -6q-1 -2 0 -2v-81l1 1v-3q0 -2 3 -5l14 -14h187q4 0 8 -1q10 -2 18 -10l56 -56q8 -8 10 -18q1 -4 1 -8v-237q0 -5 -1 -9q-2 -9 -10 -17l-56 -56q-8 -8 -18 -10
q-4 -1 -8 -1h-259q-5 0 -9 1q-9 2 -17 10l-56 56q-8 8 -10 17q-1 4 0 9l-1 2v97q0 6 4.5 10t10.5 4h118q14 0 14 -14v-45h126q2 0 5 3l17 16q1 2 2 2.5t1 2.5v3v75v2q0 1 -1 2.5t-2 3.5l-17 16q-3 3 -5 3h-180q-5 0 -9 1q-9 2 -17 10l-56 56q-8 8 -10 17q-1 4 0 9h-1v237h1
q-1 4 0 8q2 10 10 18l56 56q8 8 17 10q4 1 9 1h259q4 0 8 -1q10 -2 18 -10l56 -56q8 -8 10 -18q1 -4 1 -8h-1z" />
    <glyph glyph-name="T" unicode="T" horiz-adv-x="480" 
d="M501 697q6 0 10.5 -4.5t4.5 -10.5v-118q0 -6 -4.5 -10t-10.5 -4h-127v-538q-2 -12 -14 -12h-118q-12 0 -14 12v538h-127q-6 0 -10.5 4t-4.5 10v118q0 6 4.5 10.5t10.5 4.5h400v0z" />
    <glyph glyph-name="C" unicode="C" horiz-adv-x="564" 
d="M121 607q0 5 1 9q2 10 9 17l56 56q10 9 17 10q4 1 9 1h259q5 0 9 -1q7 -1 17 -10l56 -56q8 -8 10 -18q1 -4 1 -8h-1l1 -2v-105q0 -5 -4.5 -9.5t-9.5 -4.5h-119q-6 0 -10 4.5t-4 9.5v26v2q0 1 -1 2t-2 3l-17 17q-3 3 -7 3h-97q-3 0 -7 -3l-16 -17q-4 -4 -4 -5q-1 -1 0 -2
v-357q1 -2 1.5 -3.5t2.5 -3.5l14 -14h116l14 14q3 3 3 7v30q0 5 4 9.5t10 4.5h119q5 0 9.5 -4.5t4.5 -9.5v-113q-1 -4 -2 -7t-9 -11l-56 -56q-8 -8 -17 -10q-4 -1 -9 -1h-259q-5 0 -9 1q-10 2 -17 10l-56 56q-7 7 -9 17q-1 4 -1 9v513z" />
    <glyph glyph-name="U" unicode="U" horiz-adv-x="573" 
d="M568 93q0 -5 -1 -9t-2.5 -8t-6.5 -9l-56 -56q-8 -8 -18 -10q-4 -1 -8 -1l-259 1q-5 -1 -9 0q-9 2 -17 10l-56 56q-8 8 -10 17q-1 4 -1 9h1q0 1 -0.5 1t-0.5 1v590q0 6 4.5 10t9.5 4h119q14 0 14 -14v-517q0 -3 3 -7l14 -14h116l14 14q2 2 2.5 4t1.5 3v517q0 14 14 14h118
q14 0 14 -14v-592z" />
    <glyph glyph-name="V" unicode="V" horiz-adv-x="546" 
d="M584 700q6 0 10 -6.5t2 -11.5l-174 -666q-2 -6 -7.5 -10.5t-11.5 -4.5h-133q-6 0 -11 4.5t-7 10.5l-174 666q-3 5 1.5 11.5t10.5 6.5h125q10 0 15 -14l90 -386l8 -59l10 59l106 386q3 14 15 14h125v0z" />
    <glyph glyph-name="W" unicode="W" horiz-adv-x="590" 
d="M585 15v-3q-2 -6 -6 -9q-1 0 -1 -0.5t-1 -0.5l-1 -1h-2l-2 -1h-125q-11 0 -14 14l-70 252l-7 50l-6 -50l-78 -252q-5 -14 -15 -14h-125q-1 0 -1 0.5t-1 0.5t-1.5 0.5t-1.5 0.5t-1 1q-6 3 -6 9q-1 0 -1 1v2l-53 668q0 5 4 9.5t10 4.5h118q6 0 10.5 -4.5t4.5 -9.5l24 -340
l57 155q2 5 7 9.5t11 4.5h80q6 0 11 -4.5t8 -9.5l56 -155l25 340q0 5 4 9.5t10 4.5h119q5 0 9.5 -4.5t4.5 -9.5z" />
    <glyph glyph-name="X" unicode="X" horiz-adv-x="526" 
d="M593 23q2 -2 4 -8t-3 -10.5t-11 -4.5h-128q-6 0 -11.5 4.5t-7.5 10.5l-98 194l-97 -194q-2 -6 -7.5 -10.5t-11.5 -4.5h-128q-6 0 -11 4.5t-3 10.5t4 8l171 352l-153 306q-2 2 -2 4q-2 5 3 9.5t11 4.5h125q6 0 9 -4t6 -10l84 -150l85 150q3 6 6 10t9 4h125q6 0 11 -4.5
t3 -9.5q0 -2 -2 -4l-153 -306l171 -352v0z" />
    <glyph glyph-name="Y" unicode="Y" horiz-adv-x="528" 
d="M576 695q6 0 11.5 -4.5t3.5 -9.5q-2 -3 -2.5 -5t-2.5 -4l-181 -351v-307q0 -14 -14 -14h-119q-5 0 -9.5 4t-4.5 10v307l-181 351l-2 4t-2 5q-2 5 3 9.5t11 4.5h129q6 0 11 -4.5t7 -9.5l98 -195l97 195q3 5 8 9.5t11 4.5h128v0z" />
    <glyph glyph-name="Z" unicode="Z" horiz-adv-x="555" 
d="M552 566q0 -7 -4 -10l-242 -409h232q14 0 14 -14v-118q0 -6 -4 -10.5t-10 -4.5h-401q-5 0 -9.5 4.5t-4.5 10.5v119q0 5 3 10l240 408h-229q-5 0 -9.5 4t-4.5 10v119q0 6 4.5 10t9.5 4h401q14 0 14 -14v-119v0z" />
    <glyph glyph-name="bullet" unicode="&#x2022;" 
d="M467 189h-1q-2 -11 -9.5 -18t-18.5 -7h-244q-11 0 -18.5 7t-9.5 18h-1v264q0 12 8.5 20.5t20.5 8.5h244q12 0 20.5 -8.5t8.5 -20.5v-264z" />
    <glyph glyph-name="period" unicode="." 
d="M407 14q-2 -12 -14 -12h-118q-12 0 -14 12v135q0 14 14 14h118q14 0 14 -14v-135z" />
    <glyph glyph-name="comma" unicode="," 
d="M439 -40l-1 1q-1 -6 -5 -9.5t-13 0.5l-115 47q-12 5 -13 15v135q0 14 14 14h118q6 0 10.5 -4t4.5 -10v-189z" />
    <glyph glyph-name="colon" unicode=":" 
d="M406 13q-2 -12 -14 -12h-118q-12 0 -14 12h-1v135q0 6 4.5 10t10.5 4h118q14 0 14 -14v-135zM406 401v-134q-2 -12 -14 -12h-118q-12 0 -14 12h-1v134v1q0 5 4.5 9.5t10.5 4.5h118q6 0 10 -4.5t4 -9.5v-1z" />
    <glyph glyph-name="semicolon" unicode=";" 
d="M409 -33q-1 -6 -5 -9.5t-13 0.5l-115 47q-13 6 -13 15h-1v135q0 6 4.5 10t9.5 4h119q14 0 14 -14v-188zM409 274q-2 -12 -14 -12h-119q-11 0 -13 12h-1v135q0 5 4.5 9.5t9.5 4.5h119q6 0 10 -4.5t4 -9.5v-135z" />
    <glyph glyph-name="quotedblleft" unicode="&#x201c;" 
d="M496 497q-1 -6 -5.5 -9.5t-13.5 0.5l-114 47q-13 5 -14 15v135q0 14 14 14h119q14 0 14 -14v-188zM312 496q-2 -6 -6 -9t-12 1l-115 47q-13 6 -13 15h-1v135q0 6 4.5 10t10.5 4h118q14 0 14 -14v-189z" />
    <glyph glyph-name="quotedblright" unicode="&#x201d;" 
d="M342 686q0 6 4.5 10t9.5 4h119q14 0 14 -14v-135q-1 -10 -13 -15l-115 -47q-9 -4 -13.5 -0.5t-4.5 9.5l-1 -1v189zM159 686q0 14 14 14h118q6 0 10.5 -4t4.5 -10v-135h-1q0 -9 -13 -15l-115 -47q-9 -4 -13 -1t-5 9v189z" />
    <glyph glyph-name="quoteright" unicode="&#x2019;" 
d="M261 686q0 14 14 14h118q6 0 10.5 -4t4.5 -10v-135h-1q0 -9 -13 -15l-115 -47q-9 -4 -13 -0.5t-5 9.5v-1v189z" />
    <glyph glyph-name="quoteleft" unicode="&#x2018;" 
d="M408 496q-2 -6 -6 -9t-12 1l-115 47q-13 6 -13 15h-1v135q0 6 4.5 10t10.5 4h118q14 0 14 -14v-189z" />
    <glyph glyph-name="D" unicode="D" horiz-adv-x="550" 
d="M549 93q0 -5 -1 -9q-2 -9 -10 -17l-56 -56q-8 -8 -18 -10q-4 -1 -8 -1h-318q-14 0 -14 14v671q0 14 14 14h318q5 0 9 -1q7 -1 17 -10l56 -56q9 -10 10 -17q1 -4 1 -9v-513zM271 552v-405h114l14 14q3 4 3 7v357v2q0 1 -1 2t-2 3l-17 17q-2 3 -7 3h-104z" />
    <glyph glyph-name="space" unicode=" " 
 />
    <glyph glyph-name="exclam" unicode="!" 
d="M407 257h-1q-2 -12 -14 -12h-118q-12 0 -14 12v426q0 14 14 14h118q6 0 10.5 -4t4.5 -10v-426zM407 12h-1q-2 -12 -14 -12h-118q-12 0 -14 12v126q0 14 14 14h118q6 0 10.5 -4t4.5 -10v-126z" />
    <glyph glyph-name="quotedbl" unicode="&#x22;" 
d="M317 501q-2 -12 -14 -12h-118q-12 0 -14 12v185q0 14 14 14h118q14 0 14 -14v-185zM499 501q-2 -12 -14 -12h-118q-12 0 -14 12v185q0 14 14 14h118q14 0 14 -14v-185z" />
    <glyph glyph-name="quotesingle" unicode="'" 
d="M408 501q-2 -12 -14 -12h-118q-12 0 -14 12v185q0 14 14 14h118q14 0 14 -14v-185z" />
    <glyph glyph-name="plus" unicode="+" 
d="M235 389v139q0 5 4 9.5t10 4.5h118q6 0 10.5 -4.5t4.5 -9.5v-139h140q12 -2 12 -14v-119q0 -11 -12 -13v-1h-140v-140h-1q-2 -13 -14 -13h-118q-12 0 -14 13v140h-139q-6 0 -10 4.5t-4 9.5v119q0 14 14 14h139z" />
    <glyph glyph-name="hyphen" unicode="-" horiz-adv-x="515" 
d="M503 344q12 -2 12 -14v-119q0 -11 -12 -13v-1h-326q-6 0 -10 4.5t-4 9.5v119q0 14 14 14h326z" />
    <glyph glyph-name="endash" unicode="&#x2013;" 
d="M526 346q12 -2 12 -14v-119q0 -11 -12 -13v-1h-426q-6 0 -10 4.5t-4 9.5v119q0 14 14 14h426z" />
    <glyph glyph-name="emdash" unicode="&#x2014;" 
d="M606 346q12 -2 12 -14v-119q0 -11 -12 -13v-1h-592q-6 0 -10 4.5t-4 9.5v119q0 14 14 14h592z" />
    <glyph glyph-name="equal" unicode="=" horiz-adv-x="520" 
d="M543 319q12 -2 12 -14v-119q0 -11 -12 -13v-1h-426q-6 0 -10 4.5t-4 9.5v119q0 14 14 14h426zM543 533q12 -2 12 -14v-118q0 -12 -12 -14v-1h-426q-6 0 -10 4.5t-4 10.5v118q0 14 14 14h426z" />
    <glyph glyph-name="zero" unicode="0" horiz-adv-x="573" 
d="M566 607q0 -1 0.5 -1t0.5 -1v-512q0 -4 -1 -8q-2 -9 -10 -17l-56 -57q-8 -8 -18 -10q-4 -1 -8 0h-259q-5 -1 -9 0q-9 2 -17 10l-56 56q-8 8 -10 18q-1 4 0 8q0 1 -1 2v512h1q-1 4 0 8q2 10 10 18l56 56q8 8 17 10q4 1 9 1h259q4 0 8 -1q10 -2 18 -10l56 -56q8 -8 10 -18
q1 -4 1 -8h-1zM420 528q0 1 -1 2t-2 3l-17 17q-5 3 -7 3h-97q-3 0 -7 -3l-16 -17q-4 -4 -4 -5q-1 -1 0 -2v-358q0 -3 4 -6l13 -14h117l14 14q3 3 3 6v358v2z" />
    <glyph glyph-name="one" unicode="1" horiz-adv-x="339" 
d="M313 696l2 -1q2 0 3 -1t3 -2l2 -2l3 -6v-2v-118v-2v-548q0 -6 -4.5 -10t-10.5 -4h-118q-14 0 -14 14v535h-56v1q-5 1 -9 5t1 13l47 115q5 12 14 13h135h2z" />
    <glyph glyph-name="two" unicode="2" horiz-adv-x="599" 
d="M583 147q6 0 10 -4.5t4 -10.5v-118q0 -14 -14 -14h-416q-14 0 -14 14v296q0 4 1 8q2 10 10 18l56 56q5 5 9 6.5t8 2.5t9 1h187l14 14q1 2 2 2.5t1 2.5v3v100v2q0 3 -3 6l-16 16q-4 4 -7 4h-124v-51q0 -14 -14 -14h-119q-14 0 -14 14v105q0 4 1 8q2 10 10 18l56 56
q5 5 9 6.5t8 2.5t9 1l259 1v-1q4 0 8 -1t8.5 -2.5t9.5 -6.5l56 -56q5 -5 6.5 -9.5t2.5 -8.5t1 -8v-258q0 -5 -1 -9t-2.5 -8t-6.5 -9l-57 -56q-8 -8 -17 -10q-4 -1 -8 0h-180l-5 -3l-17 -17q-3 -3 -3 -5v-2v-82h283z" />
    <glyph glyph-name="four" unicode="4" horiz-adv-x="551" 
d="M549 325q5 0 9.5 -4t4.5 -10v-119q0 -5 -4.5 -9.5t-9.5 -4.5h-52v-164q0 -6 -4.5 -10t-9.5 -4h-119q-14 0 -14 14v164h-175q-5 0 -9 1q-9 2 -17 10l-56 56q-8 8 -10 17q-1 4 -1 9h1l-1 2v409q0 5 4.5 9.5t10.5 4.5h118q6 0 10 -4.5t4 -9.5v-336q0 -3 3 -7l14 -14h104v357
q0 14 14 14h119q5 0 9.5 -4t4.5 -10v-357h52v0z" />
    <glyph glyph-name="three" unicode="3" horiz-adv-x="609" 
d="M274 1q-5 -1 -9 0q-9 2 -17 10l-56 56q-8 8 -10 17q-1 4 -1 9h1q-1 1 -1 2v103q0 6 4.5 10t9.5 4h119q14 0 14 -14v-50h126l14 13q3 4 3 7v81v2q0 1 -1 2.5t-2 3.5l-17 16q-2 2 -3.5 2.5t-3.5 1.5h-104v146h114l14 14q3 4 3 7v81v2q0 1 -1 2.5t-2 3.5l-17 16
q-2 2 -3.5 2.5t-3.5 1.5h-116v-51q0 -14 -14 -14h-119q-5 0 -9.5 4t-4.5 10v103q0 1 1 2h-1q0 4 1 8q2 10 10 18l56 56q5 5 9 6.5t8 2.5t9 1h251q4 0 8 -1t8.5 -2.5t9.5 -6.5l56 -56q8 -8 10 -18q1 -4 1 -8v-199q0 -5 -1 -9q-2 -9 -10 -17l-39 -40l39 -40q11 -9 11 -18v-191
q0 -5 -1 -9q-2 -9 -10 -17l-56 -56q-8 -8 -18 -10q-4 -1 -8 0h-251z" />
    <glyph glyph-name="five" unicode="5" horiz-adv-x="581" 
d="M283 552v-83q-1 -1 0 -2q0 -3 4 -5l16 -17q4 -2 5 -2h180v-1q4 0 8 -1t8.5 -2.5t9.5 -6.5l56 -56q8 -8 10 -18q1 -4 1 -8v-258q0 -5 -1 -9q-2 -9 -10 -17l-56 -56q-8 -8 -18 -10q-4 -1 -8 0h-259q-5 -1 -9 0q-9 2 -17 10l-56 56q-8 8 -10 17q-1 4 0 9v105q0 14 14 14h118
q14 0 14 -14v-50h124q5 0 7 3l17 16q1 2 2 2.5t1 2.5v3v101l-1 -1v2q0 3 -3 6l-14 14h-187q-5 -1 -9 0q-9 2 -17 10l-56 56q-8 8 -10 17q-1 4 0 9l-1 296q0 6 4.5 10.5t10.5 4.5h118h219h14h65q5 0 9.5 -4.5t4.5 -10.5v-118q0 -6 -4.5 -10t-9.5 -4h-284z" />
    <glyph glyph-name="six" unicode="6" horiz-adv-x="563" 
d="M563 91q0 -2 -1.5 -9.5t-9.5 -15.5l-56 -56q-8 -8 -18 -10q-4 -1 -8 0h-258q-10 2 -19 10l-56 56q-8 8 -10 17q-1 4 -1 9h1q0 1 -0.5 1t-0.5 1v510q0 1 0.5 1t0.5 1h-1q0 4 1 8q2 10 10 18l56 56q5 5 9 6.5t8 2.5t9 1h251q4 0 8 -1t8.5 -2.5t9.5 -6.5l56 -56q8 -8 10 -18
q1 -4 1 -8v-105q0 -14 -14 -14h-119q-14 0 -14 14v51h-116q-2 -1 -3.5 -1.5t-3.5 -2.5l-17 -16q-3 -3 -3 -6v-2v-81q0 -3 3 -7l14 -14h74q1 1 2 1h103l1 -1v1q4 0 8 -1q10 -2 18 -10l56 -56q8 -8 10 -18q1 -4 1 -8v-239zM289 148h110l14 14q3 2 3 6v82q0 5 -3 7l-17 17l-2 2
h-94q-2 -1 -3.5 -1.5t-3.5 -2.5l-17 -16q-3 -3 -3 -6v-2v-81q0 -3 3 -7z" />
    <glyph glyph-name="seven" unicode="7" horiz-adv-x="555" 
d="M172 0v1q0 5 3 10l202 538h-238q-14 0 -14 14v119q0 5 4 9.5t10 4.5h401q6 0 10 -4.5t4 -9.5v-119q0 -3 -4 -13t-6 -12l-189 -524l-4 -14h-179z" />
    <glyph glyph-name="eight" unicode="8" 
d="M471 0h-259q-8 0 -18 10l-57 56q-8 8 -9 16t-1 10v191q2 10 10 18l40 40l-40 40q-8 8 -10 17q-1 4 0 9v200q0 2 1 9.5t9 15.5l57 56q5 5 9 6.5t8 2.5t9 1h251q4 0 8 -1t8.5 -2.5t9.5 -6.5l56 -56q8 -8 9 -15.5t1 -9.5v-200q0 -5 -1 -9t-2.5 -8t-6.5 -9l-40 -40l40 -40
q8 -8 10 -18v-191q0 -2 -1 -10t-9 -16l-56 -56q-10 -10 -20 -10h-6zM274 443q0 -4 3 -7l14 -14h108l14 14q3 3 3 7v82q0 5 -3 7l-16 16q-2 2 -4 2.5t-3 1.5h-90q-1 -1 -3 -1.5t-4 -2.5l-16 -16q-3 -2 -3 -7v-82zM416 250q0 3 -3 6l-16 16q-2 2 -4 2.5t-3 1.5h-90
q-1 -1 -3 -1.5t-4 -2.5l-16 -16q-3 -3 -3 -6v-2v-81q0 -4 3 -7l14 -13h108l14 13q3 3 3 7v81v2z" />
    <glyph glyph-name="nine" unicode="9" horiz-adv-x="561" 
d="M564 92q0 -5 -1 -9t-2.5 -8t-6.5 -9l-57 -56q-8 -8 -18 -10q-4 -1 -8 0h-251q-5 -1 -9 0q-9 2 -17 10l-56 56q-8 8 -10 17q-1 4 0 9v105q0 14 14 14h118q6 0 10.5 -4t4.5 -10v-50h116q4 0 7 3l16 16q3 3 3 5v3v81q0 4 -3 7l-14 14h-73q-1 0 -2 -1h-103q-1 0 -1 0.5
t-1 0.5q-5 -1 -9 0q-9 2 -17 10l-56 56q-8 8 -10 17q-1 4 0 9v239q-1 2 0.5 9.5t9.5 15.5l56 56q5 5 9 6.5t8 2.5t9 1h259q10 -2 18 -10l57 -56q5 -5 6.5 -9.5t2.5 -8.5t1 -8v-514zM401 550h-109l-14 -14q-3 -2 -3 -6v-29h-1v-53q1 -2 1.5 -3.5t2.5 -3.5l16 -17
q1 0 1.5 -0.5t1.5 -0.5l94 -1v1q4 0 7 3l16 16q3 3 3 5v3v81q0 4 -3 7z" />
    <glyph glyph-name="bar" unicode="|" 
d="M375 670q5 0 9.5 -4t4.5 -10v-774q0 -6 -4.5 -10t-9.5 -4h-119q-14 0 -14 14v774q0 14 14 14h119v0z" />
    <glyph glyph-name="fraction" unicode="&#x2044;" 
d="M513 699q5 0 9.5 -4t4.5 -10l-220 -671q0 -6 -4.5 -10t-9.5 -4h-119q-14 0 -14 14l220 671q0 14 14 14h119v0z" />
    <glyph glyph-name="backslash" unicode="\" 
d="M163 699h119q5 0 9.5 -4t4.5 -10l220 -671q0 -6 -4.5 -10t-9.5 -4h-119q-14 0 -14 14l-220 671q0 14 14 14z" />
    <glyph glyph-name="slash" unicode="/" 
d="M513 699q5 0 9.5 -4t4.5 -10l-220 -671q0 -6 -4.5 -10t-9.5 -4h-119q-14 0 -14 14l220 671q0 14 14 14h119v0z" />
    <glyph glyph-name="asciicircum" unicode="^" 
d="M389 690l171 -351q2 -2 4 -9q2 -5 -3 -9.5t-11 -4.5h-128q-6 0 -11.5 4.5t-7.5 9.5l-98 195l-97 -195q-2 -5 -7.5 -9.5t-11.5 -4.5h-128q-6 0 -11 4.5t-3 9.5q2 7 4 9l171 351q4 8 9.5 10t7.5 2h133q7 0 13 -6q3 -3 4 -6z" />
    <glyph glyph-name="greater" unicode="&#x3e;" horiz-adv-x="555" 
d="M541 231l-351 -171q-2 -2 -4 -3t-5 -2q-6 -2 -10 3.5t-4 10.5v129q0 6 4.5 11t9.5 7l194 98l-194 98q-5 2 -9.5 7t-4.5 11v129q0 5 4 10.5t10 3.5q3 -1 5 -2l4 -2l351 -172q8 -4 10 -9.5t2 -7.5v-133q0 -9 -6 -13q-3 -2 -6 -3z" />
    <glyph glyph-name="less" unicode="&#x3c;" horiz-adv-x="539" 
d="M163 233q-3 1 -6 3q-6 4 -6 13v133q0 2 2 7.5t10 9.5l351 172l4 2t5 2q5 2 9.5 -3.5t4.5 -10.5v-129q0 -6 -4.5 -11t-9.5 -7l-195 -98l195 -98q5 -2 9.5 -7t4.5 -11v-129q0 -5 -4.5 -10.5t-9.5 -3.5q-5 1 -9 5l-351 171v0z" />
    <glyph glyph-name="numbersign" unicode="#" horiz-adv-x="750" 
d="M662 422l-34 -133h108q14 0 14 -14v-119q0 -5 -4 -9.5t-10 -4.5h-146l-33 -127q0 -6 -4.5 -10t-10.5 -4h-118q-14 0 -14 14l33 127h-147l-33 -127q0 -14 -14 -14h-119q-14 0 -14 14l33 127h-50q-6 0 -10 4.5t-4 9.5v119q0 14 14 14h88l35 133h-123q-6 0 -10 4.5t-4 9.5
v119q0 14 14 14h161l26 102q0 14 14 14h119q14 0 14 -14l-26 -102h146l27 102q0 14 14 14h118q6 0 10.5 -4t4.5 -10l-27 -102h36q14 0 14 -14v-119q0 -5 -4 -9.5t-10 -4.5h-74zM515 422h-146l-35 -133h147z" />
    <glyph glyph-name="dollar" unicode="$" 
d="M494 557l1 -1v-84q0 -11 -12 -11h-96q-5 0 -8.5 3t-3.5 8v41h-100q-4 0 -6 -2l-13 -14q-3 -3 -3 -4v-2v-65h1v-2q0 -3 2 -4l12 -12h151q3 1 7 0q8 -2 14 -8l46 -46q6 -6 8 -14q1 -4 1 -7v-192q0 -3 -1 -7q-1 -3 -2.5 -7t-5.5 -7l-46 -46q-7 -8 -13.5 -8.5t-7.5 -0.5h-45
v-55q-2 -10 -11 -10h-97q-9 0 -11 10v55h-46q-3 0 -7 1q-8 2 -14 8l-45 45q-6 6 -8 14q-1 4 -1 7v81q0 11 12 11h96q11 0 11 -11v-36h102q3 0 4 2l14 13q2 2 2 4v2v61v2q0 1 -2 5l-14 13q-2 2 -4 2h-146q-3 0 -7 1q-8 2 -14 8l-45 45q-6 6 -8 14q-1 4 -1 7v193q0 3 1 7
q2 8 8 14l45 46q6 6 14 8q4 1 7 0h46v55q0 12 11 12h97q11 0 11 -12v-55h45q3 1 7 0q8 -2 14 -8l46 -46q6 -6 8 -14q1 -4 1 -7h-1z" />
    <glyph glyph-name="percent" unicode="%" 
d="M487 692q14 0 14 -14l-220 -664q0 -14 -14 -14h-118q-6 0 -10.5 4t-4.5 10l220 664q0 6 4.5 10t10.5 4h118zM248 543h-1q-2 -12 -13 -12h-119q-12 0 -14 12v135q0 14 14 14h119q14 0 14 -14v-135zM548 12q-2 -12 -14 -12h-119q-11 0 -13 12h-1v135q0 6 4.5 10t9.5 4h119
q14 0 14 -14v-135z" />
    <glyph glyph-name="parenleft" unicode="(" horiz-adv-x="483" 
d="M436 147v-147h-129q-5 0 -9 1q-9 2 -17 10l-57 56q-8 8 -10 17q-1 4 0 9v513q-1 4 0 8q2 10 10 18l57 57q5 5 9 6.5t8 2.5t9 1h129v-147h-49q-4 0 -7 -3l-16 -16q-3 -3 -3 -6v-2v-357q0 -4 3 -7l14 -14h58z" />
    <glyph glyph-name="parenright" unicode=")" horiz-adv-x="477" 
d="M278 149l14 14q3 3 3 7v357v2q0 1 -1 2.5t-2 3.5l-17 16q-2 3 -6 3h-49v147h129q4 0 8 -1t8.5 -2.5t9.5 -6.5l56 -57q8 -8 10 -18q1 -4 1 -8v-513q0 -5 -1 -9q-2 -9 -10 -17l-56 -56q-8 -8 -18 -10q-4 -1 -8 -1h-129v147h58z" />
    <glyph glyph-name="asterisk" unicode="*" horiz-adv-x="564" 
d="M502 395q2 -2 2.5 -6t-1.5 -6l-45 -65q-5 -5 -12 -2v-1l-80 57v-98h-1q0 -8 -9 -8h-78q-9 0 -9 8h-1v98l-80 -57v1q-7 -3 -12 2l-45 65q-2 2 -1.5 6t2.5 6l100 71l-99 69q-7 5 -2 14l45 64q6 8 13 2l79 -56v97q0 9 10 9h78q10 0 10 -9v-97l79 56q7 6 13 -2l45 -64
q5 -9 -2 -14l-99 -69l100 -71v0z" />
    <glyph glyph-name="question" unicode="?" horiz-adv-x="588" 
d="M588 612v-357q0 -6 -4.5 -10t-10.5 -4h-142v-38q0 -6 -4.5 -10t-9.5 -4h-119q-14 0 -14 14v170q0 6 4 10.5t10 4.5h143v141q0 4 -3 7l-14 14h-116l-14 -14q-3 -2 -3 -7v-36q0 -6 -4.5 -10.5t-10.5 -4.5h-118q-6 0 -10 4.5t-4 10.5v111q-1 4 0 8q2 10 10 18l56 56
q8 8 17 10q4 1 9 1h259q1 0 9 -1t17 -10l56 -56q8 -8 10 -18h1zM417 152q6 0 10 -4.5t4 -10.5v-125h-1q-1 -5 -4.5 -8.5t-8.5 -3.5h-119q-5 0 -9 3.5t-5 8.5v125q0 6 4 10.5t10 4.5h119z" />
    <glyph glyph-name="ampersand" unicode="&#x26;" 
d="M235 389v139q0 5 4 9.5t10 4.5h118q6 0 10.5 -4.5t4.5 -9.5v-139h140q12 -2 12 -14v-119q0 -11 -12 -13v-1h-140v-140h-1q-2 -13 -14 -13h-118q-12 0 -14 13v140h-139q-6 0 -10 4.5t-4 9.5v119q0 14 14 14h139z" />
    <glyph glyph-name="at" unicode="@" horiz-adv-x="735" 
d="M739 512q0 -1 1 -1v-458h-450q-3 -1 -6 0q-6 2 -11 7l-39 38q-3 3 -4.5 6.5t-2.5 5.5q-1 3 0 6h1l-1 1v246q-1 2 0 6q2 7 7 12l38 38q3 3 6.5 4t5.5 2q3 1 6 1h234q3 0 6 -1q2 -1 5 -2t7 -4l38 -38q3 -3 4 -6.5t2 -5.5q1 -3 1 -5v-211h53v304v2q0 1 -2 3l-11 11
q-2 2 -5 2h-426q-3 0 -4 -2l-12 -11q-2 -2 -2 -3v-2v-444q0 -1 2 -5l10 -9h393v-100h-441q-3 -1 -6 0q-7 2 -12 7l-38 38q-3 3 -4.5 6.5t-2.5 5.5q-1 3 0 6v550q-1 2 0 5q2 7 7 12l38 38q5 5 11 7q3 1 6 1h536q2 0 5 -1q2 -1 5.5 -2.5t6.5 -4.5l38 -38q3 -3 4.5 -6.5
t2.5 -5.5q1 -3 0 -5zM338 153h138l9 9q2 2 2 5v141v2l-2 4l-11 11l-4 2h-125q-1 0 -5 -2l-11 -11l-2 -4v-2v-141q0 -3 2 -5z" />
    <glyph glyph-name="A" unicode="A" horiz-adv-x="585" 
d="M414 684l99 -335l99 -335q2 -5 -3.5 -9.5t-11.5 -4.5h-114q-6 0 -11 4.5t-7 9.5l-24 81h-201l-24 -81q-2 -5 -7 -9.5t-11 -4.5h-114q-6 0 -11.5 4.5t-3.5 9.5l198 670v1q6 14 14 14h44h31h44q9 0 14 -14v-1zM401 230l-60 205l-61 -205h121z" />
    <glyph glyph-name="a" unicode="a" horiz-adv-x="585" 
d="M414 684l99 -335l99 -335q2 -5 -3.5 -9.5t-11.5 -4.5h-114q-6 0 -11 4.5t-7 9.5l-24 81h-201l-24 -81q-2 -5 -7 -9.5t-11 -4.5h-114q-6 0 -11.5 4.5t-3.5 9.5l198 670v1q6 14 14 14h44h31h44q9 0 14 -14v-1zM401 230l-60 205l-61 -205h121z" />
    <glyph glyph-name="b" unicode="b" horiz-adv-x="550" 
d="M550 407q0 -5 -1 -9q-2 -9 -10 -17l-39 -40l39 -39q5 -5 7 -9.5t3 -8.5h1v-191q0 -5 -1 -9q-2 -9 -10 -17l-56 -56q-8 -8 -18 -10q-4 -1 -8 -1h-318q-14 0 -14 14v671q0 14 14 14h318q4 0 8 -1q10 -2 18 -10l56 -56q8 -8 10 -18q1 -4 1 -8v-199zM272 552v-129h114l14 14
q3 4 3 7v81v2q0 1 -1 2t-2 3l-17 17q-2 3 -6 3h-105zM272 147h114l14 14q3 4 3 7v81v2q0 1 -1 2t-2 3l-17 17q-3 3 -6 3h-105v-129z" />
    <glyph glyph-name="c" unicode="c" horiz-adv-x="564" 
d="M121 607q0 5 1 9q2 10 9 17l56 56q10 9 17 10q4 1 9 1h259q5 0 9 -1q7 -1 17 -10l56 -56q8 -8 10 -18q1 -4 1 -8h-1l1 -2v-105q0 -5 -4.5 -9.5t-9.5 -4.5h-119q-6 0 -10 4.5t-4 9.5v26v2q0 1 -1 2t-2 3l-17 17q-3 3 -7 3h-97q-3 0 -7 -3l-16 -17q-4 -4 -4 -5q-1 -1 0 -2
v-357q1 -2 1.5 -3.5t2.5 -3.5l14 -14h116l14 14q3 3 3 7v30q0 5 4 9.5t10 4.5h119q5 0 9.5 -4.5t4.5 -9.5v-113q-1 -4 -2 -7t-9 -11l-56 -56q-8 -8 -17 -10q-4 -1 -9 -1h-259q-5 0 -9 1q-10 2 -17 10l-56 56q-7 7 -9 17q-1 4 -1 9v513z" />
    <glyph glyph-name="d" unicode="d" horiz-adv-x="550" 
d="M549 93q0 -5 -1 -9q-2 -9 -10 -17l-56 -56q-8 -8 -18 -10q-4 -1 -8 -1h-318q-14 0 -14 14v671q0 14 14 14h318q5 0 9 -1q7 -1 17 -10l56 -56q9 -10 10 -17q1 -4 1 -9v-513zM271 552v-405h114l14 14q3 4 3 7v357v2q0 1 -1 2t-2 3l-17 17q-2 3 -7 3h-104z" />
    <glyph glyph-name="e" unicode="e" horiz-adv-x="520" 
d="M273 423h177q14 0 14 -14v-119q0 -14 -14 -14h-177v-129h231q5 0 9.5 -4t4.5 -10v-119q0 -6 -4.5 -10t-9.5 -4h-364q-14 0 -14 14v671q0 14 14 14h364q5 0 9.5 -4t4.5 -10v-119q0 -6 -4.5 -10t-9.5 -4h-231v-129z" />
    <glyph glyph-name="f" unicode="f" horiz-adv-x="518" 
d="M502 699q5 0 9.5 -4t4.5 -10v-119q0 -9 -8 -12v-2h-237v-129h177q14 0 14 -14v-119q0 -9 -7 -12v-2h-184v-262q0 -14 -14 -14h-119q-14 0 -14 14v671q0 14 14 14h364v0z" />
    <glyph glyph-name="g" unicode="g" horiz-adv-x="568" 
d="M356 256q-6 0 -10 4.5t-4 9.5v119q0 14 14 14h198q6 0 10.5 -4t4.5 -10v-304h-1q-2 -10 -10 -18l-56 -56q-8 -8 -18 -10q-4 -1 -8 -1h-259q-5 0 -9 1q-9 2 -17 10l-56 56q-8 8 -10 17q-1 4 0 9l-1 1v512h1q-1 4 0 8q2 10 10 18l56 56q8 8 17 10q4 1 9 1h259q4 0 8 -1
q10 -2 18 -10l56 -56q8 -8 10 -18q1 -4 1 -8h-1l1 -1v-106q0 -5 -4.5 -9.5t-10.5 -4.5h-118q-6 0 -10 4.5t-4 9.5v26v2q0 1 -1 2t-2 3l-17 17q-2 3 -7 3h-97q-4 0 -7 -3l-16 -17q-4 -4 -4 -5q-1 -1 0 -2v-357q1 -2 1.5 -3.5t2.5 -3.5l13 -14h117l14 14q3 4 3 7v88h-66z" />
    <glyph glyph-name="h" unicode="h" horiz-adv-x="568" 
d="M554 699q14 0 14 -14v-671q0 -14 -14 -14h-119q-5 0 -9.5 4t-4.5 10v262h-150v-262q0 -6 -4.5 -10t-9.5 -4h-119q-14 0 -14 14v671q0 14 14 14h119q5 0 9.5 -4t4.5 -10v-262h150v262q0 6 4.5 10t9.5 4h119v0z" />
    <glyph glyph-name="i" unicode="i" horiz-adv-x="266" 
d="M252 696q14 0 14 -14v-668q0 -14 -14 -14h-119q-14 0 -14 14v668q0 14 14 14h119v0z" />
    <glyph glyph-name="j" unicode="j" horiz-adv-x="612" 
d="M612 93q0 -5 -1 -9q-2 -9 -10 -17l-56 -57q-8 -8 -18 -10q-4 -1 -8 0h-259q-4 -1 -8 0q-9 2 -17 10l-57 57q-5 5 -6.5 9.5t-2.5 8.5h-1v157q0 14 14 14h119q5 0 9.5 -4t4.5 -10v-74q0 -5 3 -7l14 -14h116l14 14q3 3 3 7v517q2 11 14 11h119q12 0 14 -11v-592v0z" />
    <glyph glyph-name="k" unicode="k" horiz-adv-x="526" 
d="M574 14q2 -5 -3.5 -9.5t-11.5 -4.5h-133q-6 0 -11 4.5t-7 9.5l-123 276l-52 -72v-204q0 -14 -14 -14h-119q-14 0 -14 14v671q0 5 4 9.5t10 4.5h119q6 0 10 -4.5t4 -9.5v-219l148 219q4 5 8 9.5t10 4.5h151q5 0 12.5 -4.5t5.5 -9.5l-188 -263l190 -400z" />
    <glyph glyph-name="l" unicode="l" horiz-adv-x="529" 
d="M541 147q6 0 10.5 -4.5t4.5 -9.5v-119q0 -6 -4.5 -10t-10.5 -4h-400q-6 0 -10.5 4t-4.5 10v671h1q2 11 14 11h118q12 0 14 -11v-538h268v0z" />
    <glyph glyph-name="m" unicode="m" horiz-adv-x="594" 
d="M648 14q0 -14 -14 -14h-118q-6 0 -10.5 4t-4.5 10l-4 253l-77 -255q-2 -5 -7 -9.5t-11 -4.5h-80q-6 0 -11 4.5t-8 9.5l-76 255l-5 -253q0 -14 -14 -14h-119q-5 0 -9.5 4t-4.5 10l27 668v3q1 6 6 9q1 0 2 1q2 0 3 1h127q10 0 15 -13l90 -386l11 -84l8 84l105 386
q3 13 15 13h127q1 -1 3 -1q0 -1 1 -1q4 -3 6 -9v-2l1 -1z" />
    <glyph glyph-name="n" unicode="n" horiz-adv-x="585" 
d="M570 700q14 0 14 -14v-671q0 -5 -4 -9.5t-10 -4.5h-158q-6 0 -11 4.5t-7 9.5l-122 334v-334q0 -5 -4.5 -9.5t-9.5 -4.5h-119q-6 0 -10 4.5t-4 9.5v671q0 14 14 14h149q11 0 14 -14h1l132 -386l2 -11v397q0 6 4.5 10t9.5 4h119v0z" />
    <glyph glyph-name="o" unicode="o" horiz-adv-x="568" 
d="M568 93q0 -5 -1 -9t-2.5 -8t-6.5 -9l-57 -56q-8 -8 -17 -10q-4 -1 -8 -1h-259q-5 0 -9 1q-9 2 -17 10l-56 56q-8 8 -10 17q-1 4 -1 9v513q0 4 1 8q2 10 10 18l56 56q8 8 17 10q4 1 9 1h258q4 0 8 -1q10 -2 18 -10l57 -56q5 -5 6.5 -9.5t2.5 -8.5t1 -8v-513zM297 552
q-4 0 -6 -3l-17 -16q-3 -3 -3 -6v-2v-357q0 -3 3 -7l14 -14h116l14 14q3 3 3 7v357v2q0 3 -3 6l-16 16q-3 3 -7 3h-98z" />
    <glyph glyph-name="p" unicode="p" horiz-adv-x="550" 
d="M550 352l-1 -1h1q0 -5 -1 -9q-2 -9 -10 -17l-56 -57q-8 -8 -18 -10q-4 -1 -8 0h-185v-243q0 -5 -4.5 -9.5t-10.5 -4.5h-118q-6 0 -10 4.5t-4 9.5v671q0 14 14 14h318q4 0 8 -1t8.5 -2.5t9.5 -6.5l56 -57q8 -8 10 -18q1 -4 1 -8v-255zM272 405h103h2q3 0 6 3l17 16
q1 2 2 2.5t1 2.5v3v94v2q0 1 -1 2t-2 3l-17 17q-2 1 -3.5 2t-2.5 1h-2h-103v-148z" />
    <glyph glyph-name="q" unicode="q" horiz-adv-x="570" 
d="M580 -51q2 -5 -3.5 -9.5t-10.5 -4.5h-134q-6 0 -11 4.5t-7 9.5l-22 51h-173q-5 0 -9 1q-9 2 -17 10l-56 56q-8 8 -10 17q-1 4 -1 9v513q0 4 1 8q2 10 10 18l56 56q8 8 17 10q4 1 9 1h258q4 0 8 -1q10 -2 18 -10l57 -56q5 -5 6.5 -9.5t2.5 -8.5t1 -8v-513q0 -5 -1 -9
t-2.5 -8t-6.5 -9l-21 -21l38 -91zM299 552q-4 0 -6 -3l-17 -16q-3 -3 -3 -6v-2v-356v-3q0 -2 3 -5l14 -14h116l14 14q3 3 3 5v3v356v2q0 3 -3 6l-16 16q-3 3 -7 3h-98z" />
    <glyph glyph-name="r" unicode="r" horiz-adv-x="552" 
d="M550 350q0 -5 -1 -9t-2.5 -8t-6.5 -9l-57 -57l-3 -2l102 -251q2 -5 -3.5 -9.5t-10.5 -4.5h-134q-6 0 -11 4.5t-7 9.5l-98 243h-46v-243q0 -5 -4 -9.5t-10 -4.5h-119q-5 0 -9.5 4.5t-4.5 9.5v671q0 6 4.5 10t9.5 4h318q4 0 8 -1t8.5 -2.5t9.5 -6.5l57 -57q5 -5 6.5 -10
t2.5 -9q1 -5 1 -9v-254zM272 404h105q4 0 7 3l16 16q3 3 3 5v3v94v2q0 3 -3 6l-16 16q-3 3 -6 3h-2h-104v-148z" />
    <glyph glyph-name="s" unicode="s" horiz-adv-x="566" 
d="M565 606l1 -1v-103q0 -6 -4.5 -10t-10.5 -4h-118q-14 0 -14 14v50h-124q-4 0 -7 -3l-16 -16q-4 -4 -4 -6q-1 -2 0 -2v-81l1 1v-3q0 -2 3 -5l14 -14h187q4 0 8 -1q10 -2 18 -10l56 -56q8 -8 10 -18q1 -4 1 -8v-237q0 -5 -1 -9q-2 -9 -10 -17l-56 -56q-8 -8 -18 -10
q-4 -1 -8 -1h-259q-5 0 -9 1q-9 2 -17 10l-56 56q-8 8 -10 17q-1 4 0 9l-1 2v97q0 6 4.5 10t10.5 4h118q14 0 14 -14v-45h126q2 0 5 3l17 16q1 2 2 2.5t1 2.5v3v75v2q0 1 -1 2.5t-2 3.5l-17 16q-3 3 -5 3h-180q-5 0 -9 1q-9 2 -17 10l-56 56q-8 8 -10 17q-1 4 0 9h-1v237h1
q-1 4 0 8q2 10 10 18l56 56q8 8 17 10q4 1 9 1h259q4 0 8 -1q10 -2 18 -10l56 -56q8 -8 10 -18q1 -4 1 -8h-1z" />
    <glyph glyph-name="t" unicode="t" horiz-adv-x="480" 
d="M501 697q6 0 10.5 -4.5t4.5 -10.5v-118q0 -6 -4.5 -10t-10.5 -4h-127v-538q-2 -12 -14 -12h-118q-12 0 -14 12v538h-127q-6 0 -10.5 4t-4.5 10v118q0 6 4.5 10.5t10.5 4.5h400v0z" />
    <glyph glyph-name="u" unicode="u" horiz-adv-x="573" 
d="M568 93q0 -5 -1 -9t-2.5 -8t-6.5 -9l-56 -56q-8 -8 -18 -10q-4 -1 -8 -1l-259 1q-5 -1 -9 0q-9 2 -17 10l-56 56q-8 8 -10 17q-1 4 -1 9h1q0 1 -0.5 1t-0.5 1v590q0 6 4.5 10t9.5 4h119q14 0 14 -14v-517q0 -3 3 -7l14 -14h116l14 14q2 2 2.5 4t1.5 3v517q0 14 14 14h118
q14 0 14 -14v-592z" />
    <glyph glyph-name="v" unicode="v" horiz-adv-x="546" 
d="M584 700q6 0 10 -6.5t2 -11.5l-174 -666q-2 -6 -7.5 -10.5t-11.5 -4.5h-133q-6 0 -11 4.5t-7 10.5l-174 666q-3 5 1.5 11.5t10.5 6.5h125q10 0 15 -14l90 -386l8 -59l10 59l106 386q3 14 15 14h125v0z" />
    <glyph glyph-name="w" unicode="w" horiz-adv-x="590" 
d="M585 15v-3q-2 -6 -6 -9q-1 0 -1 -0.5t-1 -0.5l-1 -1h-2l-2 -1h-125q-11 0 -14 14l-70 252l-7 50l-6 -50l-78 -252q-5 -14 -15 -14h-125q-1 0 -1 0.5t-1 0.5t-1.5 0.5t-1.5 0.5t-1 1q-6 3 -6 9q-1 0 -1 1v2l-53 668q0 5 4 9.5t10 4.5h118q6 0 10.5 -4.5t4.5 -9.5l24 -340
l57 155q2 5 7 9.5t11 4.5h80q6 0 11 -4.5t8 -9.5l56 -155l25 340q0 5 4 9.5t10 4.5h119q5 0 9.5 -4.5t4.5 -9.5z" />
    <glyph glyph-name="x" unicode="x" horiz-adv-x="526" 
d="M593 23q2 -2 4 -8t-3 -10.5t-11 -4.5h-128q-6 0 -11.5 4.5t-7.5 10.5l-98 194l-97 -194q-2 -6 -7.5 -10.5t-11.5 -4.5h-128q-6 0 -11 4.5t-3 10.5t4 8l171 352l-153 306q-2 2 -2 4q-2 5 3 9.5t11 4.5h125q6 0 9 -4t6 -10l84 -150l85 150q3 6 6 10t9 4h125q6 0 11 -4.5
t3 -9.5q0 -2 -2 -4l-153 -306l171 -352v0z" />
    <glyph glyph-name="y" unicode="y" horiz-adv-x="528" 
d="M576 695q6 0 11.5 -4.5t3.5 -9.5q-2 -3 -2.5 -5t-2.5 -4l-181 -351v-307q0 -14 -14 -14h-119q-5 0 -9.5 4t-4.5 10v307l-181 351l-2 4t-2 5q-2 5 3 9.5t11 4.5h129q6 0 11 -4.5t7 -9.5l98 -195l97 195q3 5 8 9.5t11 4.5h128v0z" />
    <glyph glyph-name="z" unicode="z" horiz-adv-x="555" 
d="M552 566q0 -7 -4 -10l-242 -409h232q14 0 14 -14v-118q0 -6 -4 -10.5t-10 -4.5h-401q-5 0 -9.5 4.5t-4.5 10.5v119q0 5 3 10l240 408h-229q-5 0 -9.5 4t-4.5 10v119q0 6 4.5 10t9.5 4h401q14 0 14 -14v-119v0z" />
    <glyph glyph-name="E" unicode="E" horiz-adv-x="520" 
d="M273 423h177q14 0 14 -14v-119q0 -14 -14 -14h-177v-129h231q5 0 9.5 -4t4.5 -10v-119q0 -6 -4.5 -10t-9.5 -4h-364q-14 0 -14 14v671q0 14 14 14h364q5 0 9.5 -4t4.5 -10v-119q0 -6 -4.5 -10t-9.5 -4h-231v-129z" />
  </font>
</defs>
</svg>
